<?xml version="1.0" encoding="UTF-8" standalone="no"?>
<!DOCTYPE svg PUBLIC "-//W3C//DTD SVG 1.1//EN"
 "http://www.w3.org/Graphics/SVG/1.1/DTD/svg11.dtd">
<!-- Generated by graphviz version 8.0.5 (20230430.1635)
 -->
<!-- Title: Java Pages: 1 -->
<svg width="266pt" height="403pt"
 viewBox="0.00 0.00 266.00 403.00" xmlns="http://www.w3.org/2000/svg" xmlns:xlink="http://www.w3.org/1999/xlink">
<g id="graph0" class="graph" transform="scale(1 1) rotate(0) translate(4 399)">
<title>Java</title>
<polygon fill="white" stroke="none" points="-4,4 -4,-399 262,-399 262,4 -4,4"/>
<!-- n1 -->
<g id="node1" class="node">
<title>n1</title>
<polygon fill="none" stroke="black" points="106,-349 106,-391 171,-391 171,-349 106,-349"/>
<text text-anchor="start" x="108.88" y="-364.57" font-family="Times New Roman,serif" font-size="14.00">LinkedList</text>
<polygon fill="none" stroke="black" points="171,-370 171,-391 250,-391 250,-370 171,-370"/>
<text text-anchor="start" x="173.75" y="-374.7" font-family="Times New Roman,serif" font-size="14.00">modCount: 3</text>
<polygon fill="none" stroke="black" points="171,-349 171,-370 250,-370 250,-349 171,-349"/>
<text text-anchor="start" x="193.25" y="-353.7" font-family="Times New Roman,serif" font-size="14.00">size: 3</text>
</g>
<!-- n2 -->
<g id="node2" class="node">
<title>n2</title>
<polygon fill="none" stroke="black" points="82.5,-266.25 82.5,-287.25 118.5,-287.25 118.5,-266.25 82.5,-266.25"/>
<text text-anchor="start" x="85.13" y="-270.95" font-family="Times New Roman,serif" font-size="14.00">Node</text>
<polygon fill="none" stroke="black" points="118.5,-266.25 118.5,-287.25 175.5,-287.25 175.5,-266.25 118.5,-266.25"/>
<text text-anchor="start" x="121.5" y="-270.95" font-family="Times New Roman,serif" font-size="14.00">prev: null</text>
</g>
<!-- n1&#45;&gt;n2 -->
<g id="edge8" class="edge">
<title>n1&#45;&gt;n2</title>
<path fill="none" stroke="black" d="M165.13,-345.03C158.41,-332.53 150.19,-317.2 143.28,-304.34"/>
<polygon fill="black" stroke="black" points="145.89,-302.81 138.08,-295.65 139.72,-306.12 145.89,-302.81"/>
<text text-anchor="middle" x="163.25" y="-315.6" font-family="Times New Roman,serif" font-size="12.00">first</text>
</g>
<!-- n6 -->
<g id="node6" class="node">
<title>n6</title>
<polygon fill="none" stroke="black" points="156.5,-93.75 156.5,-114.75 192.5,-114.75 192.5,-93.75 156.5,-93.75"/>
<text text-anchor="start" x="159.13" y="-98.45" font-family="Times New Roman,serif" font-size="14.00">Node</text>
<polygon fill="none" stroke="black" points="192.5,-93.75 192.5,-114.75 247.5,-114.75 247.5,-93.75 192.5,-93.75"/>
<text text-anchor="start" x="195.25" y="-98.45" font-family="Times New Roman,serif" font-size="14.00">next: null</text>
</g>
<!-- n1&#45;&gt;n6 -->
<g id="edge9" class="edge">
<title>n1&#45;&gt;n6</title>
<path fill="none" stroke="black" d="M183.61,-345.05C186.8,-330.56 190.63,-311.68 193,-294.75 201.65,-232.83 201.55,-216.98 204,-154.5 204.27,-147.51 204.17,-139.97 203.9,-132.94"/>
<polygon fill="black" stroke="black" points="207.35,-132.93 203.35,-123.12 200.36,-133.28 207.35,-132.93"/>
<text text-anchor="middle" x="207.5" y="-229.35" font-family="Times New Roman,serif" font-size="12.00">last</text>
</g>
<!-- n3 -->
<g id="node3" class="node">
<title>n3</title>
<polygon fill="none" stroke="black" points="8,-180 8,-201 52,-201 52,-180 8,-180"/>
<text text-anchor="start" x="10.88" y="-184.7" font-family="Times New Roman,serif" font-size="14.00">Integer</text>
<polygon fill="none" stroke="black" points="52,-180 52,-201 100,-201 100,-180 52,-180"/>
<text text-anchor="start" x="55" y="-184.7" font-family="Times New Roman,serif" font-size="14.00">value: 1</text>
</g>
<!-- n2&#45;&gt;n3 -->
<g id="edge1" class="edge">
<title>n2&#45;&gt;n3</title>
<path fill="none" stroke="black" d="M111.11,-259.08C105.26,-253.41 98.84,-246.94 93.25,-240.75 86.44,-233.2 79.39,-224.64 73.19,-216.79"/>
<polygon fill="black" stroke="black" points="75.5,-215.07 66.59,-209.33 69.98,-219.37 75.5,-215.07"/>
<text text-anchor="middle" x="103.38" y="-229.35" font-family="Times New Roman,serif" font-size="12.00">item</text>
</g>
<!-- n4 -->
<g id="node4" class="node">
<title>n4</title>
<polygon fill="none" stroke="black" points="134.63,-179.63 134.63,-201.38 171.38,-201.38 171.38,-179.63 134.63,-179.63"/>
<text text-anchor="start" x="137.63" y="-185.07" font-family="Times New Roman,serif" font-size="14.00">Node</text>
</g>
<!-- n2&#45;&gt;n4 -->
<g id="edge7" class="edge">
<title>n2&#45;&gt;n4</title>
<path fill="none" stroke="black" d="M119.85,-258.9C115.83,-249.18 112.89,-236.87 117.25,-226.5 118.79,-222.84 120.92,-219.37 123.37,-216.15"/>
<polygon fill="black" stroke="black" points="125.42,-218.99 129.47,-209.19 120.2,-214.32 125.42,-218.99"/>
<text text-anchor="middle" x="127.38" y="-229.35" font-family="Times New Roman,serif" font-size="12.00">next</text>
</g>
<!-- n4&#45;&gt;n2 -->
<g id="edge6" class="edge">
<title>n4&#45;&gt;n2</title>
<path fill="none" stroke="black" d="M148.74,-208.42C146.29,-217.95 143.09,-230.05 140,-240.75 139.24,-243.37 138.43,-246.1 137.6,-248.82"/>
<polygon fill="black" stroke="black" points="134.04,-247.47 134.42,-258.06 140.73,-249.55 134.04,-247.47"/>
<text text-anchor="middle" x="154.13" y="-229.35" font-family="Times New Roman,serif" font-size="12.00">prev</text>
</g>
<!-- n5 -->
<g id="node5" class="node">
<title>n5</title>
<polygon fill="none" stroke="black" points="30,-93.75 30,-114.75 74,-114.75 74,-93.75 30,-93.75"/>
<text text-anchor="start" x="32.88" y="-98.45" font-family="Times New Roman,serif" font-size="14.00">Integer</text>
<polygon fill="none" stroke="black" points="74,-93.75 74,-114.75 122,-114.75 122,-93.75 74,-93.75"/>
<text text-anchor="start" x="77" y="-98.45" font-family="Times New Roman,serif" font-size="14.00">value: 3</text>
</g>
<!-- n4&#45;&gt;n5 -->
<g id="edge2" class="edge">
<title>n4&#45;&gt;n5</title>
<path fill="none" stroke="black" d="M137.79,-172.85C126.68,-160.7 111.43,-144.02 98.86,-130.27"/>
<polygon fill="black" stroke="black" points="101.77,-128.17 92.44,-123.15 96.61,-132.89 101.77,-128.17"/>
<text text-anchor="middle" x="129.38" y="-143.1" font-family="Times New Roman,serif" font-size="12.00">item</text>
</g>
<!-- n4&#45;&gt;n6 -->
<g id="edge5" class="edge">
<title>n4&#45;&gt;n6</title>
<path fill="none" stroke="black" d="M148.39,-172.61C146.61,-162.64 146.08,-150.1 151.25,-140.25 153.38,-136.2 156.21,-132.53 159.45,-129.21"/>
<polygon fill="black" stroke="black" points="161.35,-131.34 166.62,-122.15 156.77,-126.04 161.35,-131.34"/>
<text text-anchor="middle" x="161.38" y="-143.1" font-family="Times New Roman,serif" font-size="12.00">next</text>
</g>
<!-- n6&#45;&gt;n4 -->
<g id="edge4" class="edge">
<title>n6&#45;&gt;n4</title>
<path fill="none" stroke="black" d="M192.17,-122.15C185.27,-134.02 175.91,-150.12 168.06,-163.6"/>
<polygon fill="black" stroke="black" points="164.68,-161.45 162.68,-171.85 170.73,-164.97 164.68,-161.45"/>
<text text-anchor="middle" x="190.13" y="-143.1" font-family="Times New Roman,serif" font-size="12.00">prev</text>
</g>
<!-- n7 -->
<g id="node7" class="node">
<title>n7</title>
<polygon fill="none" stroke="black" points="156,-7.5 156,-28.5 200,-28.5 200,-7.5 156,-7.5"/>
<text text-anchor="start" x="158.88" y="-12.2" font-family="Times New Roman,serif" font-size="14.00">Integer</text>
<polygon fill="none" stroke="black" points="200,-7.5 200,-28.5 248,-28.5 248,-7.5 200,-7.5"/>
<text text-anchor="start" x="203" y="-12.2" font-family="Times New Roman,serif" font-size="14.00">value: 2</text>
</g>
<!-- n6&#45;&gt;n7 -->
<g id="edge3" class="edge">
<title>n6&#45;&gt;n7</title>
<path fill="none" stroke="black" d="M202,-86.6C202,-75.26 202,-59.95 202,-46.78"/>
<polygon fill="black" stroke="black" points="205.5,-46.9 202,-36.9 198.5,-46.9 205.5,-46.9"/>
<text text-anchor="middle" x="211.38" y="-56.85" font-family="Times New Roman,serif" font-size="12.00">item</text>
</g>
</g>
</svg>
